Coordinates
version=1
nRows=16
nColumns=36
inDegrees=yes

Units are S.I. units (second, meters, Newtons, ...)
If the header above contains a line with 'inDegrees', this indicates whether rotational values are in degrees (yes) or radians (no).

endheader
time	pelvis_tilt	pelvis_list	pelvis_rotation	pelvis_tx	pelvis_ty	pelvis_tz	hip_flexion_r	hip_adduction_r	hip_rotation_r	knee_angle_r	knee_angle_r_beta	ankle_angle_r	subtalar_angle_r	mtp_angle_r	hip_flexion_l	hip_adduction_l	hip_rotation_l	knee_angle_l	knee_angle_l_beta	ankle_angle_l	subtalar_angle_l	mtp_angle_l	lumbar_extension	lumbar_bending	lumbar_rotation	arm_flex_r	arm_add_r	arm_rot_r	elbow_flex_r	pro_sup_r	arm_flex_l	arm_add_l	arm_rot_l	elbow_flex_l	pro_sup_l
      1.26666670	      2.46156508	     -1.20095613	     -0.81533240	      0.18608670	      1.25037469	     -0.56527817	     -1.50677359	      0.76178096	      1.72839138	     14.25903498	      0.24886711	     17.13065056	     -4.87224361	     -7.49948306	     -0.99215760	     -3.89747041	     -3.99862394	     13.76629009	      0.24026709	      9.68976507	     -3.17836171	     -7.49948306	    -10.76630713	      3.61695742	      1.27830119	      0.12246170	    -11.87368973	      7.43677797	     35.31357366	     70.03949046	     -1.96308941	    -13.86132371	     -1.80821982	     27.81721606	     71.61588983
      1.28333330	      2.38576315	     -1.21721139	     -0.76056312	      0.18616896	      1.25013435	     -0.56519948	     -1.43865134	      0.75377308	      1.68499807	     14.21086742	      0.24802643	     17.08628351	     -4.80962779	     -7.49954360	     -0.97894432	     -3.88040838	     -3.90067979	     13.65225722	      0.23827684	      9.69384392	     -3.20178226	     -7.49954360	    -10.69109379	      3.64410155	      1.33346898	     -0.30887561	    -11.79152573	      6.96732928	     35.49819310	     69.90622466	     -1.44359883	    -13.50664637	     -2.21176193	     26.93772871	     71.68303816
      1.30000000	      2.37059855	     -1.22699280	     -0.61036297	      0.18637121	      1.25029098	     -0.56541583	     -1.47311369	      0.73814088	      1.61858951	     14.17865019	      0.24746413	     17.04642162	     -4.88766112	     -7.49956147	     -1.04481046	     -3.88932350	     -3.85535455	     13.49208019	      0.23548122	      9.62726422	     -3.24508031	     -7.49956147	    -10.67336998	      3.63727511	      1.40898533	     -0.76561133	    -11.80848036	      6.43186687	     35.57972322	     69.65489893	     -0.96870522	    -13.21945086	     -2.40148977	     26.16465344	     71.65107324
      1.31666670	      2.19553558	     -1.24615609	     -0.54892091	      0.18626245	      1.24992683	     -0.56534348	     -1.29781797	      0.72879062	      1.60473224	     14.18959541	      0.24765516	     17.06683669	     -4.82384774	     -7.49961518	     -0.91047559	     -3.89403897	     -3.80362383	     13.40858183	      0.23402390	      9.60254975	     -3.31749060	     -7.49961518	    -10.41359607	      3.65385728	      1.98294978	     -1.56001637	    -11.72370758	      4.86656455	     35.80313032	     69.76579283	     -0.04753767	    -12.74587821	     -2.46434289	     24.35319721	     72.65102528
      1.33333330	      2.18819760	     -1.23765014	     -0.51210879	      0.19449109	      1.25002609	     -0.56852775	     -1.37792620	      0.67294708	      1.58729754	     14.13372107	      0.24667997	     17.09436895	     -4.84648326	     -7.49961582	     -1.06219921	     -3.85666132	     -3.85876188	     13.30972613	      0.23229854	      9.60999328	     -3.33739325	     -7.49961582	    -10.46097540	      3.62114922	      1.86260007	     -2.00709814	    -11.86475288	      4.81815850	     35.63361105	     69.76262943	     -0.36649217	    -12.52847596	     -2.43991207	     24.21647741	     72.66530516
      1.35000000	      2.37392616	     -1.22633194	     -0.46816696	      0.19495487	      1.24626814	     -0.56849668	     -1.86277616	      0.57017198	      1.34681025	     13.81530546	      0.24112257	     17.21171019	     -4.35471027	     -7.49965910	     -1.68196890	     -3.74023651	     -3.58481654	     12.76722487	      0.22283011	      9.43856386	     -3.52064301	     -7.49965910	    -10.24184411	      3.68631078	      2.34231382	     -3.02414770	    -11.88174447	      2.87297968	     35.66560978	     69.87432328	     -0.00881517	    -11.99455624	     -2.68611537	     22.43852630	     73.30308373
      1.36666670	      2.36713558	     -1.19198969	     -0.33843999	      0.19525489	      1.24659677	     -0.56870768	     -2.06729280	      0.50151720	      1.38600576	     13.66457130	      0.23849176	     17.18117592	     -4.62643357	     -7.49968066	     -1.86160042	     -3.68092469	     -3.49209894	     12.64687042	      0.22072953	      9.44628616	     -3.43869953	     -7.49968066	     -9.99588734	      3.68429257	      2.33036728	     -3.36500356	    -12.00683308	      2.05001083	     34.78448917	     69.84518185	      0.03398769	    -11.67156388	     -2.52171810	     20.94574182	     73.45592594
      1.38333330	      2.32077607	     -1.20040673	     -0.33512674	      0.19467075	      1.25041352	     -0.56836464	     -2.08163776	      0.48140121	      1.44046753	     13.64767121	      0.23819680	     17.21746627	     -4.62471738	     -7.49968103	     -1.91635521	     -3.67877428	     -3.48253733	     12.63197972	      0.22046964	      9.45918822	     -3.44091743	     -7.49968103	    -10.16089862	      3.59109091	      2.15196137	     -3.81308785	    -12.29812125	      1.97091784	     34.54541895	     69.83913406	     -0.24170159	    -11.56309689	     -2.50415425	     20.79793554	     73.46594774
      1.40000000	      2.65338097	     -1.15170208	     -0.25509039	      0.19509489	      1.25088080	     -0.56855835	     -2.71098536	      0.40807060	      1.44393616	     13.29251362	      0.23199813	     17.20930990	     -4.62649334	     -7.49970596	     -2.56679359	     -3.54200254	     -3.21312036	     12.22156063	      0.21330647	      9.45261382	     -3.41270836	     -7.49970596	    -10.20876952	      3.62933717	      2.14417195	     -4.00905799	    -12.55277674	      1.33283256	     33.47578862	     68.99675292	      0.44193291	    -10.84435419	     -1.89450902	     19.75191848	     72.63370623
      1.41666670	      2.41082038	     -1.11241428	     -0.18667186	      0.19520139	      1.25041100	     -0.56841604	     -2.51820075	      0.34620446	      1.34254109	     13.30213060	      0.23216598	     17.33385382	     -4.49246798	     -7.49973053	     -2.28354079	     -3.47533594	     -2.96835102	     12.35614956	      0.21565549	      9.45408770	     -3.56485583	     -7.49973053	     -9.62375374	      3.56466190	      1.99391766	     -3.74374397	    -12.47544049	      0.62846072	     31.32062240	     69.42382806	      1.07115977	    -10.47063113	      0.01247853	     18.54373948	     73.51494515
      1.43333330	      2.54723795	     -1.08238497	     -0.15668538	      0.19513608	      1.25069100	     -0.56841324	     -2.83475532	      0.30085276	      1.36571762	     13.02804204	      0.22738223	     17.27209072	     -4.55409073	     -7.49974915	     -2.46450852	     -3.41001227	     -2.84881536	     12.32918637	      0.21518490	      9.50538088	     -3.55516702	     -7.49974915	     -9.84328981	      3.53017523	      2.10880923	     -4.19444816	    -12.76642981	      0.29807320	     31.26338612	     68.93421499	      1.22118396	     -9.96442303	      0.59811612	     18.56960407	     72.89334156
      1.45000000	      2.51781234	     -1.00593084	     -0.07810957	      0.19501805	      1.25060737	     -0.56831292	     -2.95161154	      0.19330937	      1.24776466	     12.82843839	      0.22389849	     17.28793478	     -4.45485827	     -7.49978552	     -2.52982395	     -3.29627854	     -2.70851137	     12.19626953	      0.21286506	      9.38983120	     -3.66261993	     -7.49978552	     -9.65154338	      3.45715667	      2.15521501	     -4.13391139	    -12.72172340	     -0.58368613	     29.86074148	     69.30639929	      1.53961417	     -9.72429617	      3.03196220	     17.95569434	     73.24322356
      1.46666670	      2.54815133	     -1.01567653	     -0.06687153	      0.19489396	      1.25086306	     -0.56824202	     -3.16322140	      0.18976849	      1.22566567	     12.52711725	      0.21863944	     17.26174169	     -4.36410381	     -7.49981851	     -2.67079222	     -3.26963054	     -2.59185959	     12.03384408	      0.21003020	      9.26166436	     -3.76147089	     -7.49981851	     -9.62175477	      3.45497240	      2.31513006	     -4.39544106	    -12.84616793	     -1.08720438	     29.13620824	     69.14346360	      1.80860502	     -9.35845553	      4.11076486	     17.70964825	     72.60275006
      1.48333330	      2.70447982	     -1.00880560	     -0.11950222	      0.19462653	      1.25074840	     -0.56805378	     -3.36149219	      0.17017594	      1.34017120	     12.46784346	      0.21760492	     17.23974984	     -4.41767644	     -7.49983194	     -2.94870565	     -3.23306938	     -2.64494143	     11.88813323	      0.20748707	      9.23822478	     -3.70914776	     -7.49983194	     -9.91604460	      3.46151592	      2.30782664	     -4.52213510	    -13.00084365	     -1.30670770	     28.98274280	     69.11991587	      1.68167005	     -9.12352861	      4.43061206	     18.38898172	     72.39810262
      1.50000000	      2.77783656	     -1.02030053	     -0.13588601	      0.19472566	      1.25100975	     -0.56811415	     -3.55699613	      0.17001042	      1.39663914	     12.27520511	      0.21424275	     17.12149098	     -4.45850398	     -7.49983970	     -3.11034842	     -3.20920531	     -2.53101670	     11.76821220	      0.20539405	      9.07717029	     -3.93882027	     -7.49983970	     -9.99674486	      3.47463817	      2.39127137	     -4.58735964	    -13.17988309	     -1.48569596	     28.69500971	     68.80186381	      1.82754945	     -8.78574858	      4.76151107	     18.16139551	     71.93876823
      1.51666670	      2.87514474	     -0.98379618	     -0.22193480	      0.19435866	      1.25087451	     -0.56791361	     -3.73139775	      0.11090308	      1.44256269	     12.11150511	      0.21138564	     17.05233376	     -4.42712523	     -7.49984830	     -3.34212738	     -3.12945759	     -2.48320532	     11.57064239	      0.20194581	      8.94662344	     -4.06924536	     -7.49984830	    -10.07489625	      3.42723709	      2.42381641	     -4.40295438	    -13.24989752	     -1.71652855	     28.15194509	     68.61255271	      1.76551538	     -8.55480220	      5.27107860	     18.12187375	     71.63433881
